<?xml version="1.0" encoding="utf-8" standalone="no"?>
<!DOCTYPE svg PUBLIC "-//W3C//DTD SVG 1.1//EN"
  "http://www.w3.org/Graphics/SVG/1.1/DTD/svg11.dtd">
<svg xmlns:xlink="http://www.w3.org/1999/xlink" width="776.717695pt" height="403.045012pt" viewBox="0 0 776.717695 403.045012" xmlns="http://www.w3.org/2000/svg" version="1.1">
 <metadata>
  <rdf:RDF xmlns:dc="http://purl.org/dc/elements/1.1/" xmlns:cc="http://creativecommons.org/ns#" xmlns:rdf="http://www.w3.org/1999/02/22-rdf-syntax-ns#">
   <cc:Work>
    <dc:type rdf:resource="http://purl.org/dc/dcmitype/StillImage"/>
    <dc:date>2026-03-14T19:35:18.162139</dc:date>
    <dc:format>image/svg+xml</dc:format>
    <dc:creator>
     <cc:Agent>
      <dc:title>Matplotlib v3.10.0, https://matplotlib.org/</dc:title>
     </cc:Agent>
    </dc:creator>
   </cc:Work>
  </rdf:RDF>
 </metadata>
 <defs>
  <style type="text/css">*{stroke-linejoin: round; stroke-linecap: butt}</style>
 </defs>
 <g id="figure_1">
  <g id="patch_1">
   <path d="M 0 403.045012 
L 776.717695 403.045012 
L 776.717695 0 
L 0 0 
z
" style="fill: #ffffff"/>
  </g>
  <g id="axes_1">
   <g id="patch_2">
    <path d="M 52.789375 350.0352 
L 762.421375 350.0352 
L 762.421375 82.1952 
L 52.789375 82.1952 
z
" style="fill: #ffffff"/>
   </g>
   <g id="patch_3">
    <path d="M 194.715775 350.0352 
L 762.421375 350.0352 
L 762.421375 82.1952 
L 194.715775 82.1952 
z
" clip-path="url(#p3880939612)" style="fill: #f4f8fc; stroke: #f4f8fc; stroke-linejoin: miter"/>
   </g>
   <g id="patch_4">
    <path d="M 52.789375 182.6352 
L 762.421375 182.6352 
L 762.421375 82.1952 
L 52.789375 82.1952 
z
" clip-path="url(#p3880939612)" style="fill: #d55e00; opacity: 0.04; stroke: #d55e00; stroke-linejoin: miter"/>
   </g>
   <g id="patch_5">
    <path d="M 52.789375 350.0352 
L 762.421375 350.0352 
L 762.421375 249.5952 
L 52.789375 249.5952 
z
" clip-path="url(#p3880939612)" style="fill: #0072b2; opacity: 0.04; stroke: #0072b2; stroke-linejoin: miter"/>
   </g>
   <g id="matplotlib.axis_1">
    <g id="xtick_1">
     <g id="line2d_1"/>
     <g id="text_1">
      <text style="font-size: 9px; font-family: 'Arial'; fill: #475569" transform="translate(68.441509 364.477231)">Dec</text>
      <text style="font-size: 9px; font-family: 'Arial'; fill: #475569" transform="translate(66.434088 373.996419)">2025</text>
     </g>
    </g>
    <g id="xtick_2">
     <g id="line2d_2"/>
     <g id="text_2">
      <text style="font-size: 9px; font-family: 'Arial'; fill: #475569" transform="translate(116.497731 364.477231)">Jan</text>
      <text style="font-size: 9px; font-family: 'Arial'; fill: #475569" transform="translate(113.742888 373.996419)">2026</text>
     </g>
    </g>
    <g id="xtick_3">
     <g id="line2d_3"/>
     <g id="text_3">
      <text style="font-size: 9px; font-family: 'Arial'; text-anchor: middle; fill: #475569" x="171.061375" y="364.477231" transform="rotate(-0 171.061375 364.477231)">Feb</text>
     </g>
    </g>
    <g id="xtick_4">
     <g id="line2d_4"/>
     <g id="text_4">
      <text style="font-size: 9px; font-family: 'Arial'; text-anchor: middle; fill: #475569" x="218.370175" y="364.477231" transform="rotate(-0 218.370175 364.477231)">Mar</text>
     </g>
    </g>
    <g id="xtick_5">
     <g id="line2d_5"/>
     <g id="text_5">
      <text style="font-size: 9px; font-family: 'Arial'; text-anchor: middle; fill: #475569" x="265.678975" y="364.477231" transform="rotate(-0 265.678975 364.477231)">Apr</text>
     </g>
    </g>
    <g id="xtick_6">
     <g id="line2d_6"/>
     <g id="text_6">
      <text style="font-size: 9px; font-family: 'Arial'; text-anchor: middle; fill: #475569" x="312.987775" y="364.477231" transform="rotate(-0 312.987775 364.477231)">May</text>
     </g>
    </g>
    <g id="xtick_7">
     <g id="line2d_7"/>
     <g id="text_7">
      <text style="font-size: 9px; font-family: 'Arial'; text-anchor: middle; fill: #475569" x="360.296575" y="364.477231" transform="rotate(-0 360.296575 364.477231)">Jun</text>
     </g>
    </g>
    <g id="xtick_8">
     <g id="line2d_8"/>
     <g id="text_8">
      <text style="font-size: 9px; font-family: 'Arial'; text-anchor: middle; fill: #475569" x="407.605375" y="364.477231" transform="rotate(-0 407.605375 364.477231)">Jul</text>
     </g>
    </g>
    <g id="xtick_9">
     <g id="line2d_9"/>
     <g id="text_9">
      <text style="font-size: 9px; font-family: 'Arial'; text-anchor: middle; fill: #475569" x="454.914175" y="364.477231" transform="rotate(-0 454.914175 364.477231)">Aug</text>
     </g>
    </g>
    <g id="xtick_10">
     <g id="line2d_10"/>
     <g id="text_10">
      <text style="font-size: 9px; font-family: 'Arial'; text-anchor: middle; fill: #475569" x="502.222975" y="364.586919" transform="rotate(-0 502.222975 364.586919)">Sep</text>
     </g>
    </g>
    <g id="xtick_11">
     <g id="line2d_11"/>
     <g id="text_11">
      <text style="font-size: 9px; font-family: 'Arial'; text-anchor: middle; fill: #475569" x="549.531775" y="364.477231" transform="rotate(-0 549.531775 364.477231)">Oct</text>
     </g>
    </g>
    <g id="xtick_12">
     <g id="line2d_12"/>
     <g id="text_12">
      <text style="font-size: 9px; font-family: 'Arial'; text-anchor: middle; fill: #475569" x="596.840575" y="364.477231" transform="rotate(-0 596.840575 364.477231)">Nov</text>
     </g>
    </g>
    <g id="xtick_13">
     <g id="line2d_13"/>
     <g id="text_13">
      <text style="font-size: 9px; font-family: 'Arial'; text-anchor: middle; fill: #475569" x="644.149375" y="364.477231" transform="rotate(-0 644.149375 364.477231)">Dec</text>
     </g>
    </g>
    <g id="xtick_14">
     <g id="line2d_14"/>
     <g id="text_14">
      <text style="font-size: 9px; font-family: 'Arial'; fill: #475569" transform="translate(684.203331 364.477231)">Jan</text>
      <text style="font-size: 9px; font-family: 'Arial'; fill: #475569" transform="translate(681.448487 373.996419)">2027</text>
     </g>
    </g>
    <g id="xtick_15">
     <g id="line2d_15"/>
     <g id="text_15">
      <text style="font-size: 9px; font-family: 'Arial'; text-anchor: middle; fill: #475569" x="738.766975" y="364.477231" transform="rotate(-0 738.766975 364.477231)">Feb</text>
     </g>
    </g>
    <g id="text_16">
     <text style="font-size: 11px; font-family: 'Arial'; text-anchor: middle" x="407.605375" y="393.658762" transform="rotate(-0 407.605375 393.658762)">Valid month</text>
    </g>
   </g>
   <g id="matplotlib.axis_2">
    <g id="ytick_1">
     <g id="line2d_16">
      <path d="M 52.789375 350.0352 
L 762.421375 350.0352 
" clip-path="url(#p3880939612)" style="fill: none; stroke: #d7e0ea; stroke-width: 0.8; stroke-linecap: square"/>
     </g>
     <g id="line2d_17">
      <defs>
       <path id="m042feee499" d="M 0 0 
L -6 0 
" style="stroke: #475569; stroke-width: 0.8"/>
      </defs>
      <g>
       <use xlink:href="#m042feee499" x="52.789375" y="350.0352" style="fill: #475569; stroke: #475569; stroke-width: 0.8"/>
      </g>
     </g>
     <g id="text_17">
      <text style="font-size: 9px; font-family: 'Arial'; text-anchor: end; fill: #475569" x="43.289375" y="353.256216" transform="rotate(-0 43.289375 353.256216)">−2.0</text>
     </g>
    </g>
    <g id="ytick_2">
     <g id="line2d_18">
      <path d="M 52.789375 316.5552 
L 762.421375 316.5552 
" clip-path="url(#p3880939612)" style="fill: none; stroke: #d7e0ea; stroke-width: 0.8; stroke-linecap: square"/>
     </g>
     <g id="line2d_19">
      <g>
       <use xlink:href="#m042feee499" x="52.789375" y="316.5552" style="fill: #475569; stroke: #475569; stroke-width: 0.8"/>
      </g>
     </g>
     <g id="text_18">
      <text style="font-size: 9px; font-family: 'Arial'; text-anchor: end; fill: #475569" x="43.289375" y="319.776216" transform="rotate(-0 43.289375 319.776216)">−1.5</text>
     </g>
    </g>
    <g id="ytick_3">
     <g id="line2d_20">
      <path d="M 52.789375 283.0752 
L 762.421375 283.0752 
" clip-path="url(#p3880939612)" style="fill: none; stroke: #d7e0ea; stroke-width: 0.8; stroke-linecap: square"/>
     </g>
     <g id="line2d_21">
      <g>
       <use xlink:href="#m042feee499" x="52.789375" y="283.0752" style="fill: #475569; stroke: #475569; stroke-width: 0.8"/>
      </g>
     </g>
     <g id="text_19">
      <text style="font-size: 9px; font-family: 'Arial'; text-anchor: end; fill: #475569" x="43.289375" y="286.296216" transform="rotate(-0 43.289375 286.296216)">−1.0</text>
     </g>
    </g>
    <g id="ytick_4">
     <g id="line2d_22">
      <path d="M 52.789375 249.5952 
L 762.421375 249.5952 
" clip-path="url(#p3880939612)" style="fill: none; stroke: #d7e0ea; stroke-width: 0.8; stroke-linecap: square"/>
     </g>
     <g id="line2d_23">
      <g>
       <use xlink:href="#m042feee499" x="52.789375" y="249.5952" style="fill: #475569; stroke: #475569; stroke-width: 0.8"/>
      </g>
     </g>
     <g id="text_20">
      <text style="font-size: 9px; font-family: 'Arial'; text-anchor: end; fill: #475569" x="43.289375" y="252.816216" transform="rotate(-0 43.289375 252.816216)">−0.5</text>
     </g>
    </g>
    <g id="ytick_5">
     <g id="line2d_24">
      <path d="M 52.789375 216.1152 
L 762.421375 216.1152 
" clip-path="url(#p3880939612)" style="fill: none; stroke: #d7e0ea; stroke-width: 0.8; stroke-linecap: square"/>
     </g>
     <g id="line2d_25">
      <g>
       <use xlink:href="#m042feee499" x="52.789375" y="216.1152" style="fill: #475569; stroke: #475569; stroke-width: 0.8"/>
      </g>
     </g>
     <g id="text_21">
      <text style="font-size: 9px; font-family: 'Arial'; text-anchor: end; fill: #475569" x="43.289375" y="219.336216" transform="rotate(-0 43.289375 219.336216)">0.0</text>
     </g>
    </g>
    <g id="ytick_6">
     <g id="line2d_26">
      <path d="M 52.789375 182.6352 
L 762.421375 182.6352 
" clip-path="url(#p3880939612)" style="fill: none; stroke: #d7e0ea; stroke-width: 0.8; stroke-linecap: square"/>
     </g>
     <g id="line2d_27">
      <g>
       <use xlink:href="#m042feee499" x="52.789375" y="182.6352" style="fill: #475569; stroke: #475569; stroke-width: 0.8"/>
      </g>
     </g>
     <g id="text_22">
      <text style="font-size: 9px; font-family: 'Arial'; text-anchor: end; fill: #475569" x="43.289375" y="185.856216" transform="rotate(-0 43.289375 185.856216)">0.5</text>
     </g>
    </g>
    <g id="ytick_7">
     <g id="line2d_28">
      <path d="M 52.789375 149.1552 
L 762.421375 149.1552 
" clip-path="url(#p3880939612)" style="fill: none; stroke: #d7e0ea; stroke-width: 0.8; stroke-linecap: square"/>
     </g>
     <g id="line2d_29">
      <g>
       <use xlink:href="#m042feee499" x="52.789375" y="149.1552" style="fill: #475569; stroke: #475569; stroke-width: 0.8"/>
      </g>
     </g>
     <g id="text_23">
      <text style="font-size: 9px; font-family: 'Arial'; text-anchor: end; fill: #475569" x="43.289375" y="152.376216" transform="rotate(-0 43.289375 152.376216)">1.0</text>
     </g>
    </g>
    <g id="ytick_8">
     <g id="line2d_30">
      <path d="M 52.789375 115.6752 
L 762.421375 115.6752 
" clip-path="url(#p3880939612)" style="fill: none; stroke: #d7e0ea; stroke-width: 0.8; stroke-linecap: square"/>
     </g>
     <g id="line2d_31">
      <g>
       <use xlink:href="#m042feee499" x="52.789375" y="115.6752" style="fill: #475569; stroke: #475569; stroke-width: 0.8"/>
      </g>
     </g>
     <g id="text_24">
      <text style="font-size: 9px; font-family: 'Arial'; text-anchor: end; fill: #475569" x="43.289375" y="118.896216" transform="rotate(-0 43.289375 118.896216)">1.5</text>
     </g>
    </g>
    <g id="ytick_9">
     <g id="line2d_32">
      <path d="M 52.789375 82.1952 
L 762.421375 82.1952 
" clip-path="url(#p3880939612)" style="fill: none; stroke: #d7e0ea; stroke-width: 0.8; stroke-linecap: square"/>
     </g>
     <g id="line2d_33">
      <g>
       <use xlink:href="#m042feee499" x="52.789375" y="82.1952" style="fill: #475569; stroke: #475569; stroke-width: 0.8"/>
      </g>
     </g>
     <g id="text_25">
      <text style="font-size: 9px; font-family: 'Arial'; text-anchor: end; fill: #475569" x="43.289375" y="85.416216" transform="rotate(-0 43.289375 85.416216)">2.0</text>
     </g>
    </g>
    <g id="text_26">
     <text style="font-size: 11px; font-family: 'Arial'; text-anchor: middle" x="15.207656" y="216.1152" transform="rotate(-90 15.207656 216.1152)">Nino 3.4 SSTA (°C)</text>
    </g>
   </g>
   <g id="line2d_34">
    <path d="M 52.789375 216.1152 
L 762.421375 216.1152 
" clip-path="url(#p3880939612)" style="fill: none; stroke: #7a7a7a; stroke-linecap: square"/>
   </g>
   <g id="line2d_35">
    <path d="M 52.789375 182.6352 
L 762.421375 182.6352 
" clip-path="url(#p3880939612)" style="fill: none; stroke-dasharray: 4,3; stroke-dashoffset: 0; stroke: #d55e00; stroke-opacity: 0.9"/>
   </g>
   <g id="line2d_36">
    <path d="M 52.789375 249.5952 
L 762.421375 249.5952 
" clip-path="url(#p3880939612)" style="fill: none; stroke-dasharray: 4,3; stroke-dashoffset: 0; stroke: #0072b2; stroke-opacity: 0.9"/>
   </g>
   <g id="line2d_37">
    <path d="M 194.715775 350.0352 
L 194.715775 82.1952 
" clip-path="url(#p3880939612)" style="fill: none; stroke-dasharray: 3.3,3.3; stroke-dashoffset: 0; stroke: #94a3b8; stroke-width: 1.1"/>
   </g>
   <g id="FillBetweenPolyCollection_1">
    <defs>
     <path id="me5171df59f" d="M 171.061375 -164.007172 
L 171.061375 -164.007172 
L 172.244095 -162.529587 
L 173.426815 -161.06139 
L 174.609535 -159.602662 
L 175.792255 -158.153485 
L 176.974975 -156.713939 
L 178.157695 -155.284105 
L 179.340415 -153.864065 
L 180.523135 -152.453899 
L 181.705855 -151.053689 
L 182.888575 -149.663515 
L 184.071295 -148.283459 
L 185.254015 -146.913602 
L 186.436735 -145.554023 
L 187.619455 -144.204806 
L 188.802175 -142.86603 
L 189.984895 -141.537776 
L 191.167615 -140.220127 
L 192.350335 -138.913162 
L 193.533055 -137.616962 
L 194.715775 -136.331609 
L 195.898495 -135.057184 
L 197.081215 -133.793768 
L 198.263935 -132.541441 
L 199.446655 -131.300285 
L 200.629375 -130.070381 
L 201.812095 -128.85181 
L 202.994815 -127.644653 
L 204.177535 -126.44899 
L 205.360255 -125.264903 
L 206.542975 -124.092473 
L 207.725695 -122.931781 
L 208.908415 -121.782908 
L 210.091135 -120.645935 
L 211.273855 -119.520943 
L 212.456575 -118.408013 
L 213.639295 -117.307225 
L 214.822015 -116.218662 
L 216.004735 -115.142404 
L 217.187455 -114.078532 
L 218.370175 -113.027127 
L 219.552895 -111.98827 
L 220.735615 -110.962042 
L 221.918335 -109.948524 
L 223.101055 -108.947797 
L 224.283775 -107.959943 
L 225.466495 -106.985042 
L 226.649215 -106.023175 
L 227.831935 -105.074423 
L 229.014655 -104.138867 
L 230.197375 -103.216589 
L 231.380095 -102.307669 
L 232.562815 -101.412188 
L 233.745535 -100.530228 
L 234.928255 -99.661868 
L 236.110975 -98.807192 
L 237.293695 -97.966278 
L 238.476415 -97.139209 
L 239.659135 -96.326066 
L 240.841855 -95.526929 
L 242.024575 -94.741879 
L 243.207295 -93.970998 
L 244.390015 -93.214366 
L 245.572735 -92.472065 
L 246.755455 -91.744175 
L 247.938175 -91.030778 
L 249.120895 -90.331955 
L 250.303615 -89.647786 
L 251.486335 -88.978352 
L 252.669055 -88.323736 
L 253.851775 -87.684016 
L 255.034495 -87.059276 
L 256.217215 -86.449595 
L 257.399935 -85.855055 
L 258.582655 -85.275737 
L 259.765375 -84.711721 
L 260.948095 -84.16309 
L 262.130815 -83.629923 
L 263.313535 -83.112301 
L 264.496255 -82.610307 
L 265.678975 -82.124021 
L 266.861695 -81.644495 
L 268.044415 -81.163212 
L 269.227135 -80.680893 
L 270.409855 -80.19826 
L 271.592575 -79.716036 
L 272.775295 -79.234941 
L 273.958015 -78.755699 
L 275.140735 -78.27903 
L 276.323455 -77.805658 
L 277.506175 -77.336304 
L 278.688895 -76.87169 
L 279.871615 -76.412538 
L 281.054335 -75.95957 
L 282.237055 -75.513509 
L 283.419775 -75.075075 
L 284.602495 -74.644992 
L 285.785215 -74.223981 
L 286.967935 -73.812764 
L 288.150655 -73.412063 
L 289.333375 -73.0226 
L 290.516095 -72.645098 
L 291.698815 -72.280277 
L 292.881535 -71.928861 
L 294.064255 -71.591571 
L 295.246975 -71.269129 
L 296.429695 -70.962257 
L 297.612415 -70.671677 
L 298.795135 -70.398112 
L 299.977855 -70.142282 
L 301.160575 -69.904911 
L 302.343295 -69.68672 
L 303.526015 -69.488431 
L 304.708735 -69.310766 
L 305.891455 -69.154447 
L 307.074175 -69.020197 
L 308.256895 -68.908736 
L 309.439615 -68.820788 
L 310.622335 -68.757074 
L 311.805055 -68.718316 
L 312.987775 -68.705236 
L 314.170495 -68.706496 
L 315.353215 -68.710188 
L 316.535935 -68.716186 
L 317.718655 -68.72436 
L 318.901375 -68.734584 
L 320.084095 -68.746728 
L 321.266815 -68.760666 
L 322.449535 -68.776268 
L 323.632255 -68.793406 
L 324.814975 -68.811954 
L 325.997695 -68.831782 
L 327.180415 -68.852763 
L 328.363135 -68.874768 
L 329.545855 -68.897669 
L 330.728575 -68.921339 
L 331.911295 -68.94565 
L 333.094015 -68.970472 
L 334.276735 -68.995679 
L 335.459455 -69.021142 
L 336.642175 -69.046732 
L 337.824895 -69.072323 
L 339.007615 -69.097786 
L 340.190335 -69.122993 
L 341.373055 -69.147815 
L 342.555775 -69.172126 
L 343.738495 -69.195796 
L 344.921215 -69.218697 
L 346.103935 -69.240702 
L 347.286655 -69.261683 
L 348.469375 -69.281511 
L 349.652095 -69.300059 
L 350.834815 -69.317197 
L 352.017535 -69.332799 
L 353.200255 -69.346737 
L 354.382975 -69.358881 
L 355.565695 -69.369105 
L 356.748415 -69.377279 
L 357.931135 -69.383277 
L 359.113855 -69.386969 
L 360.296575 -69.388228 
L 361.479295 -69.38334 
L 362.662015 -69.369004 
L 363.844735 -69.34572 
L 365.027455 -69.313983 
L 366.210175 -69.274292 
L 367.392895 -69.227143 
L 368.575615 -69.173033 
L 369.758335 -69.11246 
L 370.941055 -69.045921 
L 372.123775 -68.973913 
L 373.306495 -68.896934 
L 374.489215 -68.815479 
L 375.671935 -68.730048 
L 376.854655 -68.641136 
L 378.037375 -68.549241 
L 379.220095 -68.45486 
L 380.402815 -68.35849 
L 381.585535 -68.260629 
L 382.768255 -68.161773 
L 383.950975 -68.06242 
L 385.133695 -67.963068 
L 386.316415 -67.864212 
L 387.499135 -67.766351 
L 388.681855 -67.669981 
L 389.864575 -67.5756 
L 391.047295 -67.483705 
L 392.230015 -67.394793 
L 393.412735 -67.309362 
L 394.595455 -67.227907 
L 395.778175 -67.150927 
L 396.960895 -67.07892 
L 398.143615 -67.012381 
L 399.326335 -66.951808 
L 400.509055 -66.897698 
L 401.691775 -66.850549 
L 402.874495 -66.810858 
L 404.057215 -66.779121 
L 405.239935 -66.755837 
L 406.422655 -66.741501 
L 407.605375 -66.736612 
L 408.788095 -66.756069 
L 409.970815 -66.813121 
L 411.153535 -66.905789 
L 412.336255 -67.032094 
L 413.518975 -67.190057 
L 414.701695 -67.377701 
L 415.884415 -67.593046 
L 417.067135 -67.834114 
L 418.249855 -68.098925 
L 419.432575 -68.385502 
L 420.615295 -68.691866 
L 421.798015 -69.016038 
L 422.980735 -69.356039 
L 424.163455 -69.709891 
L 425.346175 -70.075615 
L 426.528895 -70.451232 
L 427.711615 -70.834764 
L 428.894335 -71.224232 
L 430.077055 -71.617657 
L 431.259775 -72.01306 
L 432.442495 -72.408464 
L 433.625215 -72.801889 
L 434.807935 -73.191357 
L 435.990655 -73.574889 
L 437.173375 -73.950506 
L 438.356095 -74.31623 
L 439.538815 -74.670082 
L 440.721535 -75.010083 
L 441.904255 -75.334255 
L 443.086975 -75.640619 
L 444.269695 -75.927196 
L 445.452415 -76.192007 
L 446.635135 -76.433075 
L 447.817855 -76.64842 
L 449.000575 -76.836064 
L 450.183295 -76.994027 
L 451.366015 -77.120332 
L 452.548735 -77.213 
L 453.731455 -77.270052 
L 454.914175 -77.289508 
L 456.096895 -77.270358 
L 457.279615 -77.214155 
L 458.462335 -77.122774 
L 459.645055 -76.99809 
L 460.827775 -76.841976 
L 462.010495 -76.656308 
L 463.193215 -76.442958 
L 464.375935 -76.203802 
L 465.558655 -75.940714 
L 466.741375 -75.655569 
L 467.924095 -75.350239 
L 469.106815 -75.0266 
L 470.289535 -74.686526 
L 471.472255 -74.331891 
L 472.654975 -73.96457 
L 473.837695 -73.586437 
L 475.020415 -73.199365 
L 476.203135 -72.80523 
L 477.385855 -72.405905 
L 478.568575 -72.003265 
L 479.751295 -71.599185 
L 480.934015 -71.195537 
L 482.116735 -70.794198 
L 483.299455 -70.39704 
L 484.482175 -70.005938 
L 485.664895 -69.622767 
L 486.847615 -69.249401 
L 488.030335 -68.887714 
L 489.213055 -68.53958 
L 490.395775 -68.206874 
L 491.578495 -67.891469 
L 492.761215 -67.595241 
L 493.943935 -67.320063 
L 495.126655 -67.06781 
L 496.309375 -66.840356 
L 497.492095 -66.639575 
L 498.674815 -66.467341 
L 499.857535 -66.325529 
L 501.040255 -66.216014 
L 502.222975 -66.140668 
L 503.405695 -66.085041 
L 504.588415 -66.033289 
L 505.771135 -65.985202 
L 506.953855 -65.940568 
L 508.136575 -65.899177 
L 509.319295 -65.860818 
L 510.502015 -65.82528 
L 511.684735 -65.792352 
L 512.867455 -65.761823 
L 514.050175 -65.733483 
L 515.232895 -65.707121 
L 516.415615 -65.682525 
L 517.598335 -65.659485 
L 518.781055 -65.63779 
L 519.963775 -65.61723 
L 521.146495 -65.597592 
L 522.329215 -65.578667 
L 523.511935 -65.560244 
L 524.694655 -65.542111 
L 525.877375 -65.524058 
L 527.060095 -65.505875 
L 528.242815 -65.487349 
L 529.425535 -65.46827 
L 530.608255 -65.448428 
L 531.790975 -65.427611 
L 532.973695 -65.405609 
L 534.156415 -65.382211 
L 535.339135 -65.357206 
L 536.521855 -65.330383 
L 537.704575 -65.301531 
L 538.887295 -65.270439 
L 540.070015 -65.236897 
L 541.252735 -65.200693 
L 542.435455 -65.161617 
L 543.618175 -65.119458 
L 544.800895 -65.074005 
L 545.983615 -65.025048 
L 547.166335 -64.972374 
L 548.349055 -64.915774 
L 549.531775 -64.855036 
L 550.714495 -64.68919 
L 551.897215 -64.324437 
L 553.079935 -63.77133 
L 554.262655 -63.04042 
L 555.445375 -62.142258 
L 556.628095 -61.087396 
L 557.810815 -59.886385 
L 558.993535 -58.549777 
L 560.176255 -57.088124 
L 561.358975 -55.511976 
L 562.541695 -53.831885 
L 563.724415 -52.058404 
L 564.907135 -50.202082 
L 566.089855 -48.273472 
L 567.272575 -46.283125 
L 568.455295 -44.241592 
L 569.638015 -42.159426 
L 570.820735 -40.047177 
L 572.003455 -37.915397 
L 573.186175 -35.774638 
L 574.368895 -33.63545 
L 575.551615 -31.508386 
L 576.734335 -29.403997 
L 577.917055 -27.332834 
L 579.099775 -25.305449 
L 580.282495 -23.332393 
L 581.465215 -21.424218 
L 582.647935 -19.591475 
L 583.830655 -17.844715 
L 585.013375 -16.194491 
L 586.196095 -14.651353 
L 587.378815 -13.225854 
L 588.561535 -11.928544 
L 589.744255 -10.769975 
L 590.926975 -9.760698 
L 592.109695 -8.911266 
L 593.292415 -8.232229 
L 594.475135 -7.734138 
L 595.657855 -7.427547 
L 596.840575 -7.323004 
L 598.023295 -7.337097 
L 599.206015 -7.378776 
L 600.388735 -7.447139 
L 601.571455 -7.541286 
L 602.754175 -7.660318 
L 603.936895 -7.803334 
L 605.119615 -7.969433 
L 606.302335 -8.157716 
L 607.485055 -8.36728 
L 608.667775 -8.597227 
L 609.850495 -8.846656 
L 611.033215 -9.114667 
L 612.215935 -9.400358 
L 613.398655 -9.70283 
L 614.581375 -10.021183 
L 615.764095 -10.354515 
L 616.946815 -10.701926 
L 618.129535 -11.062517 
L 619.312255 -11.435387 
L 620.494975 -11.819634 
L 621.677695 -12.21436 
L 622.860415 -12.618663 
L 624.043135 -13.031644 
L 625.225855 -13.452401 
L 626.408575 -13.880034 
L 627.591295 -14.313644 
L 628.774015 -14.752328 
L 629.956735 -15.195188 
L 631.139455 -15.641323 
L 632.322175 -16.089832 
L 633.504895 -16.539816 
L 634.687615 -16.990372 
L 635.870335 -17.440602 
L 637.053055 -17.889605 
L 638.235775 -18.33648 
L 639.418495 -18.780327 
L 640.601215 -19.220246 
L 641.783935 -19.655336 
L 642.966655 -20.084697 
L 644.149375 -20.507428 
L 645.332095 -20.948283 
L 646.514815 -21.430786 
L 647.697535 -21.952194 
L 648.880255 -22.509762 
L 650.062975 -23.100748 
L 651.245695 -23.722408 
L 652.428415 -24.371998 
L 653.611135 -25.046776 
L 654.793855 -25.743998 
L 655.976575 -26.46092 
L 657.159295 -27.194798 
L 658.342015 -27.94289 
L 659.524735 -28.702451 
L 660.707455 -29.470739 
L 661.890175 -30.24501 
L 663.072895 -31.02252 
L 664.255615 -31.800527 
L 665.438335 -32.576285 
L 666.621055 -33.347053 
L 667.803775 -34.110087 
L 668.986495 -34.862642 
L 670.169215 -35.601976 
L 671.351935 -36.325345 
L 672.534655 -37.030006 
L 673.717375 -37.713215 
L 674.900095 -38.372229 
L 676.082815 -39.004304 
L 677.265535 -39.606697 
L 678.448255 -40.176664 
L 679.630975 -40.711463 
L 680.813695 -41.208348 
L 681.996415 -41.664578 
L 683.179135 -42.077408 
L 684.361855 -42.444095 
L 685.544575 -42.761895 
L 686.727295 -43.028066 
L 687.910015 -43.239863 
L 689.092735 -43.394544 
L 690.275455 -43.489364 
L 691.458175 -43.52158 
L 692.640895 -43.51082 
L 693.823615 -43.478416 
L 695.006335 -43.424185 
L 696.189055 -43.347947 
L 697.371775 -43.249516 
L 698.554495 -43.128712 
L 699.737215 -42.985351 
L 700.919935 -42.81925 
L 702.102655 -42.630228 
L 703.285375 -42.418101 
L 704.468095 -42.182686 
L 705.650815 -41.923801 
L 706.833535 -41.641263 
L 708.016255 -41.33489 
L 709.198975 -41.004499 
L 710.381695 -40.649907 
L 711.564415 -40.270932 
L 712.747135 -39.86739 
L 713.929855 -39.4391 
L 715.112575 -38.985877 
L 716.295295 -38.507541 
L 717.478015 -38.003908 
L 718.660735 -37.474796 
L 719.843455 -36.920021 
L 721.026175 -36.339401 
L 722.208895 -35.732754 
L 723.391615 -35.099896 
L 724.574335 -34.440646 
L 725.757055 -33.75482 
L 726.939775 -33.042236 
L 728.122495 -32.302711 
L 729.305215 -31.536062 
L 730.487935 -30.742107 
L 731.670655 -29.920663 
L 732.853375 -29.071547 
L 734.036095 -28.194577 
L 735.218815 -27.28957 
L 736.401535 -26.356343 
L 737.584255 -25.394715 
L 738.766975 -24.4045 
L 738.766975 -113.488084 
L 738.766975 -113.488084 
L 737.584255 -114.99379 
L 736.401535 -116.474323 
L 735.218815 -117.929013 
L 734.036095 -119.357185 
L 732.853375 -120.758168 
L 731.670655 -122.131289 
L 730.487935 -123.475875 
L 729.305215 -124.791254 
L 728.122495 -126.076752 
L 726.939775 -127.331698 
L 725.757055 -128.555419 
L 724.574335 -129.747241 
L 723.391615 -130.906493 
L 722.208895 -132.032502 
L 721.026175 -133.124595 
L 719.843455 -134.182099 
L 718.660735 -135.204343 
L 717.478015 -136.190652 
L 716.295295 -137.140355 
L 715.112575 -138.052779 
L 713.929855 -138.927251 
L 712.747135 -139.763099 
L 711.564415 -140.55965 
L 710.381695 -141.316232 
L 709.198975 -142.032171 
L 708.016255 -142.706796 
L 706.833535 -143.339433 
L 705.650815 -143.92941 
L 704.468095 -144.476054 
L 703.285375 -144.978692 
L 702.102655 -145.436653 
L 700.919935 -145.849263 
L 699.737215 -146.21585 
L 698.554495 -146.535741 
L 697.371775 -146.808263 
L 696.189055 -147.032744 
L 695.006335 -147.208512 
L 693.823615 -147.334893 
L 692.640895 -147.411214 
L 691.458175 -147.436804 
L 690.275455 -147.400668 
L 689.092735 -147.29471 
L 687.910015 -147.122605 
L 686.727295 -146.888027 
L 685.544575 -146.594652 
L 684.361855 -146.246154 
L 683.179135 -145.846208 
L 681.996415 -145.398489 
L 680.813695 -144.906671 
L 679.630975 -144.374431 
L 678.448255 -143.805442 
L 677.265535 -143.203379 
L 676.082815 -142.571918 
L 674.900095 -141.914732 
L 673.717375 -141.235498 
L 672.534655 -140.537889 
L 671.351935 -139.825581 
L 670.169215 -139.102248 
L 668.986495 -138.371566 
L 667.803775 -137.637209 
L 666.621055 -136.902851 
L 665.438335 -136.172169 
L 664.255615 -135.448836 
L 663.072895 -134.736528 
L 661.890175 -134.038919 
L 660.707455 -133.359685 
L 659.524735 -132.702499 
L 658.342015 -132.071038 
L 657.159295 -131.468975 
L 655.976575 -130.899986 
L 654.793855 -130.367746 
L 653.611135 -129.875928 
L 652.428415 -129.428209 
L 651.245695 -129.028263 
L 650.062975 -128.679765 
L 648.880255 -128.38639 
L 647.697535 -128.151812 
L 646.514815 -127.979707 
L 645.332095 -127.873749 
L 644.149375 -127.837612 
L 642.966655 -127.840463 
L 641.783935 -127.848919 
L 640.601215 -127.862837 
L 639.418495 -127.882073 
L 638.235775 -127.906484 
L 637.053055 -127.935925 
L 635.870335 -127.970253 
L 634.687615 -128.009325 
L 633.504895 -128.052996 
L 632.322175 -128.101124 
L 631.139455 -128.153564 
L 629.956735 -128.210172 
L 628.774015 -128.270806 
L 627.591295 -128.335321 
L 626.408575 -128.403573 
L 625.225855 -128.47542 
L 624.043135 -128.550717 
L 622.860415 -128.62932 
L 621.677695 -128.711087 
L 620.494975 -128.795873 
L 619.312255 -128.883534 
L 618.129535 -128.973928 
L 616.946815 -129.06691 
L 615.764095 -129.162336 
L 614.581375 -129.260063 
L 613.398655 -129.359947 
L 612.215935 -129.461845 
L 611.033215 -129.565613 
L 609.850495 -129.671107 
L 608.667775 -129.778184 
L 607.485055 -129.886699 
L 606.302335 -129.99651 
L 605.119615 -130.107472 
L 603.936895 -130.219442 
L 602.754175 -130.332276 
L 601.571455 -130.445831 
L 600.388735 -130.559962 
L 599.206015 -130.674527 
L 598.023295 -130.789381 
L 596.840575 -130.904381 
L 595.657855 -131.027709 
L 594.475135 -131.167089 
L 593.292415 -131.321685 
L 592.109695 -131.490663 
L 590.926975 -131.673188 
L 589.744255 -131.868426 
L 588.561535 -132.075543 
L 587.378815 -132.293702 
L 586.196095 -132.522071 
L 585.013375 -132.759813 
L 583.830655 -133.006095 
L 582.647935 -133.260083 
L 581.465215 -133.52094 
L 580.282495 -133.787833 
L 579.099775 -134.059928 
L 577.917055 -134.336388 
L 576.734335 -134.616381 
L 575.551615 -134.899071 
L 574.368895 -135.183624 
L 573.186175 -135.469204 
L 572.003455 -135.754978 
L 570.820735 -136.040111 
L 569.638015 -136.323767 
L 568.455295 -136.605114 
L 567.272575 -136.883315 
L 566.089855 -137.157537 
L 564.907135 -137.426944 
L 563.724415 -137.690702 
L 562.541695 -137.947977 
L 561.358975 -138.197933 
L 560.176255 -138.439737 
L 558.993535 -138.672553 
L 557.810815 -138.895547 
L 556.628095 -139.107885 
L 555.445375 -139.308731 
L 554.262655 -139.497251 
L 553.079935 -139.672611 
L 551.897215 -139.833975 
L 550.714495 -139.98051 
L 549.531775 -140.11138 
L 548.349055 -140.234252 
L 547.166335 -140.357235 
L 545.983615 -140.480163 
L 544.800895 -140.602867 
L 543.618175 -140.725181 
L 542.435455 -140.846936 
L 541.252735 -140.967966 
L 540.070015 -141.088104 
L 538.887295 -141.207181 
L 537.704575 -141.32503 
L 536.521855 -141.441485 
L 535.339135 -141.556377 
L 534.156415 -141.66954 
L 532.973695 -141.780805 
L 531.790975 -141.890006 
L 530.608255 -141.996974 
L 529.425535 -142.101543 
L 528.242815 -142.203546 
L 527.060095 -142.302814 
L 525.877375 -142.39918 
L 524.694655 -142.492478 
L 523.511935 -142.582539 
L 522.329215 -142.669197 
L 521.146495 -142.752283 
L 519.963775 -142.83163 
L 518.781055 -142.907072 
L 517.598335 -142.97844 
L 516.415615 -143.045568 
L 515.232895 -143.108287 
L 514.050175 -143.16643 
L 512.867455 -143.219831 
L 511.684735 -143.268321 
L 510.502015 -143.311734 
L 509.319295 -143.349901 
L 508.136575 -143.382655 
L 506.953855 -143.40983 
L 505.771135 -143.431257 
L 504.588415 -143.44677 
L 503.405695 -143.4562 
L 502.222975 -143.459381 
L 501.040255 -143.457245 
L 499.857535 -143.450953 
L 498.674815 -143.440675 
L 497.492095 -143.426584 
L 496.309375 -143.40885 
L 495.126655 -143.387646 
L 493.943935 -143.363142 
L 492.761215 -143.33551 
L 491.578495 -143.304921 
L 490.395775 -143.271547 
L 489.213055 -143.235559 
L 488.030335 -143.197129 
L 486.847615 -143.156428 
L 485.664895 -143.113628 
L 484.482175 -143.0689 
L 483.299455 -143.022415 
L 482.116735 -142.974345 
L 480.934015 -142.924861 
L 479.751295 -142.874136 
L 478.568575 -142.822339 
L 477.385855 -142.769643 
L 476.203135 -142.716219 
L 475.020415 -142.662239 
L 473.837695 -142.607873 
L 472.654975 -142.553294 
L 471.472255 -142.498673 
L 470.289535 -142.444181 
L 469.106815 -142.38999 
L 467.924095 -142.336271 
L 466.741375 -142.283196 
L 465.558655 -142.230935 
L 464.375935 -142.179662 
L 463.193215 -142.129546 
L 462.010495 -142.080759 
L 460.827775 -142.033473 
L 459.645055 -141.98786 
L 458.462335 -141.94409 
L 457.279615 -141.902335 
L 456.096895 -141.862767 
L 454.914175 -141.825557 
L 453.731455 -141.788988 
L 452.548735 -141.751302 
L 451.366015 -141.712605 
L 450.183295 -141.673003 
L 449.000575 -141.632601 
L 447.817855 -141.591507 
L 446.635135 -141.549825 
L 445.452415 -141.507663 
L 444.269695 -141.465127 
L 443.086975 -141.422322 
L 441.904255 -141.379355 
L 440.721535 -141.336332 
L 439.538815 -141.293359 
L 438.356095 -141.250543 
L 437.173375 -141.207989 
L 435.990655 -141.165803 
L 434.807935 -141.124092 
L 433.625215 -141.082962 
L 432.442495 -141.04252 
L 431.259775 -141.00287 
L 430.077055 -140.96412 
L 428.894335 -140.926375 
L 427.711615 -140.889742 
L 426.528895 -140.854326 
L 425.346175 -140.820235 
L 424.163455 -140.787574 
L 422.980735 -140.756449 
L 421.798015 -140.726966 
L 420.615295 -140.699232 
L 419.432575 -140.673353 
L 418.249855 -140.649435 
L 417.067135 -140.627583 
L 415.884415 -140.607905 
L 414.701695 -140.590506 
L 413.518975 -140.575493 
L 412.336255 -140.562972 
L 411.153535 -140.553048 
L 409.970815 -140.545828 
L 408.788095 -140.541418 
L 407.605375 -140.539924 
L 406.422655 -140.557881 
L 405.239935 -140.610567 
L 404.057215 -140.696205 
L 402.874495 -140.813021 
L 401.691775 -140.959237 
L 400.509055 -141.133077 
L 399.326335 -141.332766 
L 398.143615 -141.556526 
L 396.960895 -141.802582 
L 395.778175 -142.069158 
L 394.595455 -142.354478 
L 393.412735 -142.656764 
L 392.230015 -142.974242 
L 391.047295 -143.305135 
L 389.864575 -143.647666 
L 388.681855 -144.00006 
L 387.499135 -144.36054 
L 386.316415 -144.727331 
L 385.133695 -145.098655 
L 383.950975 -145.472737 
L 382.768255 -145.847801 
L 381.585535 -146.22207 
L 380.402815 -146.593769 
L 379.220095 -146.96112 
L 378.037375 -147.322349 
L 376.854655 -147.675678 
L 375.671935 -148.019332 
L 374.489215 -148.351534 
L 373.306495 -148.670508 
L 372.123775 -148.974478 
L 370.941055 -149.261668 
L 369.758335 -149.530301 
L 368.575615 -149.778602 
L 367.392895 -150.004794 
L 366.210175 -150.207101 
L 365.027455 -150.383747 
L 363.844735 -150.532956 
L 362.662015 -150.652951 
L 361.479295 -150.741957 
L 360.296575 -150.798197 
L 359.113855 -150.836092 
L 357.931135 -150.871342 
L 356.748415 -150.904088 
L 355.565695 -150.934473 
L 354.382975 -150.962638 
L 353.200255 -150.988723 
L 352.017535 -151.01287 
L 350.834815 -151.035222 
L 349.652095 -151.055919 
L 348.469375 -151.075102 
L 347.286655 -151.092914 
L 346.103935 -151.109496 
L 344.921215 -151.124989 
L 343.738495 -151.139534 
L 342.555775 -151.153273 
L 341.373055 -151.166348 
L 340.190335 -151.1789 
L 339.007615 -151.19107 
L 337.824895 -151.203 
L 336.642175 -151.214832 
L 335.459455 -151.226706 
L 334.276735 -151.238765 
L 333.094015 -151.251149 
L 331.911295 -151.264001 
L 330.728575 -151.277461 
L 329.545855 -151.291671 
L 328.363135 -151.306773 
L 327.180415 -151.322907 
L 325.997695 -151.340217 
L 324.814975 -151.358842 
L 323.632255 -151.378924 
L 322.449535 -151.400606 
L 321.266815 -151.424027 
L 320.084095 -151.44933 
L 318.901375 -151.476657 
L 317.718655 -151.506148 
L 316.535935 -151.537945 
L 315.353215 -151.57219 
L 314.170495 -151.609024 
L 312.987775 -151.648589 
L 311.805055 -151.729184 
L 310.622335 -151.886297 
L 309.439615 -152.115846 
L 308.256895 -152.41375 
L 307.074175 -152.775928 
L 305.891455 -153.198298 
L 304.708735 -153.67678 
L 303.526015 -154.207293 
L 302.343295 -154.785754 
L 301.160575 -155.408084 
L 299.977855 -156.070201 
L 298.795135 -156.768023 
L 297.612415 -157.49747 
L 296.429695 -158.254461 
L 295.246975 -159.034914 
L 294.064255 -159.834749 
L 292.881535 -160.649883 
L 291.698815 -161.476237 
L 290.516095 -162.309728 
L 289.333375 -163.146276 
L 288.150655 -163.9818 
L 286.967935 -164.812218 
L 285.785215 -165.63345 
L 284.602495 -166.441413 
L 283.419775 -167.232028 
L 282.237055 -168.001212 
L 281.054335 -168.744886 
L 279.871615 -169.458967 
L 278.688895 -170.139374 
L 277.506175 -170.782027 
L 276.323455 -171.382844 
L 275.140735 -171.937744 
L 273.958015 -172.442645 
L 272.775295 -172.893468 
L 271.592575 -173.28613 
L 270.409855 -173.616551 
L 269.227135 -173.880649 
L 268.044415 -174.074344 
L 266.861695 -174.193553 
L 265.678975 -174.234197 
L 264.496255 -174.234177 
L 263.313535 -174.234037 
L 262.130815 -174.233657 
L 260.948095 -174.232918 
L 259.765375 -174.2317 
L 258.582655 -174.229882 
L 257.399935 -174.227345 
L 256.217215 -174.223969 
L 255.034495 -174.219635 
L 253.851775 -174.214222 
L 252.669055 -174.20761 
L 251.486335 -174.19968 
L 250.303615 -174.190312 
L 249.120895 -174.179386 
L 247.938175 -174.166782 
L 246.755455 -174.15238 
L 245.572735 -174.136061 
L 244.390015 -174.117704 
L 243.207295 -174.09719 
L 242.024575 -174.074399 
L 240.841855 -174.049211 
L 239.659135 -174.021506 
L 238.476415 -173.991165 
L 237.293695 -173.958067 
L 236.110975 -173.922092 
L 234.928255 -173.883122 
L 233.745535 -173.841035 
L 232.562815 -173.795713 
L 231.380095 -173.747035 
L 230.197375 -173.694881 
L 229.014655 -173.639132 
L 227.831935 -173.579667 
L 226.649215 -173.516367 
L 225.466495 -173.449113 
L 224.283775 -173.377783 
L 223.101055 -173.302259 
L 221.918335 -173.22242 
L 220.735615 -173.138147 
L 219.552895 -173.04932 
L 218.370175 -172.955818 
L 217.187455 -172.857523 
L 216.004735 -172.754314 
L 214.822015 -172.646072 
L 213.639295 -172.532675 
L 212.456575 -172.414006 
L 211.273855 -172.289943 
L 210.091135 -172.160368 
L 208.908415 -172.025159 
L 207.725695 -171.884198 
L 206.542975 -171.737364 
L 205.360255 -171.584538 
L 204.177535 -171.4256 
L 202.994815 -171.26043 
L 201.812095 -171.088907 
L 200.629375 -170.910913 
L 199.446655 -170.726327 
L 198.263935 -170.53503 
L 197.081215 -170.336901 
L 195.898495 -170.131822 
L 194.715775 -169.919671 
L 193.533055 -169.700329 
L 192.350335 -169.473677 
L 191.167615 -169.239594 
L 189.984895 -168.99796 
L 188.802175 -168.748657 
L 187.619455 -168.491563 
L 186.436735 -168.226559 
L 185.254015 -167.953525 
L 184.071295 -167.672342 
L 182.888575 -167.382889 
L 181.705855 -167.085047 
L 180.523135 -166.778696 
L 179.340415 -166.463716 
L 178.157695 -166.139986 
L 176.974975 -165.807388 
L 175.792255 -165.465802 
L 174.609535 -165.115107 
L 173.426815 -164.755183 
L 172.244095 -164.385912 
L 171.061375 -164.007172 
z
" style="stroke: #d9ecff; stroke-opacity: 0.2"/>
    </defs>
    <g clip-path="url(#p3880939612)">
     <use xlink:href="#me5171df59f" x="0" y="403.045012" style="fill: #d9ecff; fill-opacity: 0.2; stroke: #d9ecff; stroke-opacity: 0.2"/>
    </g>
   </g>
   <g id="patch_6">
    <path d="M 52.789375 350.0352 
L 52.789375 82.1952 
" style="fill: none; stroke: #64748b; stroke-linejoin: miter; stroke-linecap: square"/>
   </g>
   <g id="patch_7">
    <path d="M 52.789375 350.0352 
L 762.421375 350.0352 
" style="fill: none; stroke: #64748b; stroke-linejoin: miter; stroke-linecap: square"/>
   </g>
   <g id="FillBetweenPolyCollection_2">
    <defs>
     <path id="m3534c7019e" d="M 171.061375 -164.007172 
L 171.061375 -164.007172 
L 172.244095 -163.161996 
L 173.426815 -162.32187 
L 174.609535 -161.486812 
L 175.792255 -160.656842 
L 176.974975 -159.831977 
L 178.157695 -159.012237 
L 179.340415 -158.197639 
L 180.523135 -157.388202 
L 181.705855 -156.583946 
L 182.888575 -155.784888 
L 184.071295 -154.991047 
L 185.254015 -154.202442 
L 186.436735 -153.419091 
L 187.619455 -152.641013 
L 188.802175 -151.868226 
L 189.984895 -151.10075 
L 191.167615 -150.338601 
L 192.350335 -149.5818 
L 193.533055 -148.830364 
L 194.715775 -148.084313 
L 195.898495 -147.343664 
L 197.081215 -146.608436 
L 198.263935 -145.878649 
L 199.446655 -145.15432 
L 200.629375 -144.435468 
L 201.812095 -143.722111 
L 202.994815 -143.014269 
L 204.177535 -142.311959 
L 205.360255 -141.615201 
L 206.542975 -140.924012 
L 207.725695 -140.238412 
L 208.908415 -139.558419 
L 210.091135 -138.884051 
L 211.273855 -138.215328 
L 212.456575 -137.552267 
L 213.639295 -136.894887 
L 214.822015 -136.243208 
L 216.004735 -135.597246 
L 217.187455 -134.957022 
L 218.370175 -134.322553 
L 219.552895 -133.693858 
L 220.735615 -133.070956 
L 221.918335 -132.453865 
L 223.101055 -131.842603 
L 224.283775 -131.23719 
L 225.466495 -130.637644 
L 226.649215 -130.043984 
L 227.831935 -129.456227 
L 229.014655 -128.874394 
L 230.197375 -128.298501 
L 231.380095 -127.728568 
L 232.562815 -127.164613 
L 233.745535 -126.606655 
L 234.928255 -126.054713 
L 236.110975 -125.508805 
L 237.293695 -124.968949 
L 238.476415 -124.435164 
L 239.659135 -123.907469 
L 240.841855 -123.385883 
L 242.024575 -122.870423 
L 243.207295 -122.361108 
L 244.390015 -121.857958 
L 245.572735 -121.36099 
L 246.755455 -120.870223 
L 247.938175 -120.385676 
L 249.120895 -119.907367 
L 250.303615 -119.435315 
L 251.486335 -118.969538 
L 252.669055 -118.510055 
L 253.851775 -118.056885 
L 255.034495 -117.610045 
L 256.217215 -117.169556 
L 257.399935 -116.735434 
L 258.582655 -116.307699 
L 259.765375 -115.88637 
L 260.948095 -115.471464 
L 262.130815 -115.063001 
L 263.313535 -114.660999 
L 264.496255 -114.265477 
L 265.678975 -113.876452 
L 266.861695 -113.494555 
L 268.044415 -113.120234 
L 269.227135 -112.753245 
L 270.409855 -112.393341 
L 271.592575 -112.040275 
L 272.775295 -111.6938 
L 273.958015 -111.353669 
L 275.140735 -111.019637 
L 276.323455 -110.691457 
L 277.506175 -110.368881 
L 278.688895 -110.051664 
L 279.871615 -109.739558 
L 281.054335 -109.432318 
L 282.237055 -109.129696 
L 283.419775 -108.831446 
L 284.602495 -108.537322 
L 285.785215 -108.247076 
L 286.967935 -107.960462 
L 288.150655 -107.677234 
L 289.333375 -107.397144 
L 290.516095 -107.119947 
L 291.698815 -106.845396 
L 292.881535 -106.573243 
L 294.064255 -106.303243 
L 295.246975 -106.035149 
L 296.429695 -105.768715 
L 297.612415 -105.503693 
L 298.795135 -105.239837 
L 299.977855 -104.9769 
L 301.160575 -104.714636 
L 302.343295 -104.452799 
L 303.526015 -104.191141 
L 304.708735 -103.929416 
L 305.891455 -103.667378 
L 307.074175 -103.404779 
L 308.256895 -103.141374 
L 309.439615 -102.876915 
L 310.622335 -102.611156 
L 311.805055 -102.343851 
L 312.987775 -102.074753 
L 314.170495 -101.807373 
L 315.353215 -101.545166 
L 316.535935 -101.287798 
L 317.718655 -101.034934 
L 318.901375 -100.786241 
L 320.084095 -100.541385 
L 321.266815 -100.300032 
L 322.449535 -100.061847 
L 323.632255 -99.826497 
L 324.814975 -99.593648 
L 325.997695 -99.362966 
L 327.180415 -99.134117 
L 328.363135 -98.906766 
L 329.545855 -98.68058 
L 330.728575 -98.455226 
L 331.911295 -98.230367 
L 333.094015 -98.005672 
L 334.276735 -97.780806 
L 335.459455 -97.555434 
L 336.642175 -97.329224 
L 337.824895 -97.10184 
L 339.007615 -96.872949 
L 340.190335 -96.642217 
L 341.373055 -96.40931 
L 342.555775 -96.173894 
L 343.738495 -95.935635 
L 344.921215 -95.694199 
L 346.103935 -95.449252 
L 347.286655 -95.20046 
L 348.469375 -94.947488 
L 349.652095 -94.690004 
L 350.834815 -94.427673 
L 352.017535 -94.160161 
L 353.200255 -93.887134 
L 354.382975 -93.608257 
L 355.565695 -93.323198 
L 356.748415 -93.031622 
L 357.931135 -92.733195 
L 359.113855 -92.427583 
L 360.296575 -92.114452 
L 361.479295 -91.780942 
L 362.662015 -91.415802 
L 363.844735 -91.021115 
L 365.027455 -90.598961 
L 366.210175 -90.151423 
L 367.392895 -89.680583 
L 368.575615 -89.188523 
L 369.758335 -88.677324 
L 370.941055 -88.149068 
L 372.123775 -87.605837 
L 373.306495 -87.049713 
L 374.489215 -86.482778 
L 375.671935 -85.907113 
L 376.854655 -85.3248 
L 378.037375 -84.737922 
L 379.220095 -84.148559 
L 380.402815 -83.558794 
L 381.585535 -82.970709 
L 382.768255 -82.386385 
L 383.950975 -81.807904 
L 385.133695 -81.237349 
L 386.316415 -80.6768 
L 387.499135 -80.12834 
L 388.681855 -79.59405 
L 389.864575 -79.076013 
L 391.047295 -78.57631 
L 392.230015 -78.097023 
L 393.412735 -77.640234 
L 394.595455 -77.208024 
L 395.778175 -76.802476 
L 396.960895 -76.425671 
L 398.143615 -76.079691 
L 399.326335 -75.766618 
L 400.509055 -75.488533 
L 401.691775 -75.24752 
L 402.874495 -75.045658 
L 404.057215 -74.885031 
L 405.239935 -74.76772 
L 406.422655 -74.695806 
L 407.605375 -74.671372 
L 408.788095 -74.700076 
L 409.970815 -74.784242 
L 411.153535 -74.92095 
L 412.336255 -75.107282 
L 413.518975 -75.340319 
L 414.701695 -75.617141 
L 415.884415 -75.934829 
L 417.067135 -76.290465 
L 418.249855 -76.68113 
L 419.432575 -77.103904 
L 420.615295 -77.555868 
L 421.798015 -78.034104 
L 422.980735 -78.535692 
L 424.163455 -79.057713 
L 425.346175 -79.597248 
L 426.528895 -80.151379 
L 427.711615 -80.717186 
L 428.894335 -81.29175 
L 430.077055 -81.872152 
L 431.259775 -82.455472 
L 432.442495 -83.038793 
L 433.625215 -83.619195 
L 434.807935 -84.193759 
L 435.990655 -84.759566 
L 437.173375 -85.313697 
L 438.356095 -85.853232 
L 439.538815 -86.375253 
L 440.721535 -86.876841 
L 441.904255 -87.355077 
L 443.086975 -87.807041 
L 444.269695 -88.229815 
L 445.452415 -88.62048 
L 446.635135 -88.976116 
L 447.817855 -89.293804 
L 449.000575 -89.570626 
L 450.183295 -89.803663 
L 451.366015 -89.989995 
L 452.548735 -90.126703 
L 453.731455 -90.210869 
L 454.914175 -90.239572 
L 456.096895 -90.218413 
L 457.279615 -90.156293 
L 458.462335 -90.055254 
L 459.645055 -89.917336 
L 460.827775 -89.744579 
L 462.010495 -89.539022 
L 463.193215 -89.302706 
L 464.375935 -89.037671 
L 465.558655 -88.745957 
L 466.741375 -88.429605 
L 467.924095 -88.090653 
L 469.106815 -87.731144 
L 470.289535 -87.353115 
L 471.472255 -86.958608 
L 472.654975 -86.549663 
L 473.837695 -86.12832 
L 475.020415 -85.696619 
L 476.203135 -85.256599 
L 477.385855 -84.810302 
L 478.568575 -84.359767 
L 479.751295 -83.907034 
L 480.934015 -83.454143 
L 482.116735 -83.003135 
L 483.299455 -82.55605 
L 484.482175 -82.114927 
L 485.664895 -81.681807 
L 486.847615 -81.25873 
L 488.030335 -80.847736 
L 489.213055 -80.450865 
L 490.395775 -80.070157 
L 491.578495 -79.707652 
L 492.761215 -79.365391 
L 493.943935 -79.045413 
L 495.126655 -78.749758 
L 496.309375 -78.480468 
L 497.492095 -78.239581 
L 498.674815 -78.029138 
L 499.857535 -77.851179 
L 501.040255 -77.707743 
L 502.222975 -77.600872 
L 503.405695 -77.515917 
L 504.588415 -77.436659 
L 505.771135 -77.362786 
L 506.953855 -77.293986 
L 508.136575 -77.229946 
L 509.319295 -77.170353 
L 510.502015 -77.114895 
L 511.684735 -77.06326 
L 512.867455 -77.015134 
L 514.050175 -76.970205 
L 515.232895 -76.928161 
L 516.415615 -76.888689 
L 517.598335 -76.851476 
L 518.781055 -76.81621 
L 519.963775 -76.782578 
L 521.146495 -76.750268 
L 522.329215 -76.718967 
L 523.511935 -76.688362 
L 524.694655 -76.658141 
L 525.877375 -76.627992 
L 527.060095 -76.597601 
L 528.242815 -76.566656 
L 529.425535 -76.534845 
L 530.608255 -76.501855 
L 531.790975 -76.467373 
L 532.973695 -76.431087 
L 534.156415 -76.392684 
L 535.339135 -76.351851 
L 536.521855 -76.308277 
L 537.704575 -76.261648 
L 538.887295 -76.211653 
L 540.070015 -76.157977 
L 541.252735 -76.100309 
L 542.435455 -76.038336 
L 543.618175 -75.971746 
L 544.800895 -75.900226 
L 545.983615 -75.823463 
L 547.166335 -75.741145 
L 548.349055 -75.652959 
L 549.531775 -75.558592 
L 550.714495 -75.385169 
L 551.897215 -75.065247 
L 553.079935 -74.606665 
L 554.262655 -74.017262 
L 555.445375 -73.304876 
L 556.628095 -72.477347 
L 557.810815 -71.542512 
L 558.993535 -70.508212 
L 560.176255 -69.382285 
L 561.358975 -68.17257 
L 562.541695 -66.886905 
L 563.724415 -65.53313 
L 564.907135 -64.119083 
L 566.089855 -62.652603 
L 567.272575 -61.141529 
L 568.455295 -59.5937 
L 569.638015 -58.016955 
L 570.820735 -56.419132 
L 572.003455 -54.808071 
L 573.186175 -53.191609 
L 574.368895 -51.577587 
L 575.551615 -49.973842 
L 576.734335 -48.388215 
L 577.917055 -46.828542 
L 579.099775 -45.302664 
L 580.282495 -43.81842 
L 581.465215 -42.383647 
L 582.647935 -41.006185 
L 583.830655 -39.693873 
L 585.013375 -38.45455 
L 586.196095 -37.296054 
L 587.378815 -36.226224 
L 588.561535 -35.2529 
L 589.744255 -34.383919 
L 590.926975 -33.627121 
L 592.109695 -32.990345 
L 593.292415 -32.481429 
L 594.475135 -32.108212 
L 595.657855 -31.878534 
L 596.840575 -31.800232 
L 598.023295 -31.806864 
L 599.206015 -31.826511 
L 600.388735 -31.858807 
L 601.571455 -31.903383 
L 602.754175 -31.959871 
L 603.936895 -32.027902 
L 605.119615 -32.107108 
L 606.302335 -32.197121 
L 607.485055 -32.297573 
L 608.667775 -32.408096 
L 609.850495 -32.528321 
L 611.033215 -32.657879 
L 612.215935 -32.796403 
L 613.398655 -32.943525 
L 614.581375 -33.098876 
L 615.764095 -33.262087 
L 616.946815 -33.432791 
L 618.129535 -33.61062 
L 619.312255 -33.795204 
L 620.494975 -33.986177 
L 621.677695 -34.183168 
L 622.860415 -34.385811 
L 624.043135 -34.593738 
L 625.225855 -34.806578 
L 626.408575 -35.023966 
L 627.591295 -35.245531 
L 628.774015 -35.470907 
L 629.956735 -35.699724 
L 631.139455 -35.931614 
L 632.322175 -36.16621 
L 633.504895 -36.403143 
L 634.687615 -36.642044 
L 635.870335 -36.882546 
L 637.053055 -37.124279 
L 638.235775 -37.366877 
L 639.418495 -37.60997 
L 640.601215 -37.85319 
L 641.783935 -38.09617 
L 642.966655 -38.33854 
L 644.149375 -38.579932 
L 645.332095 -38.839473 
L 646.514815 -39.135058 
L 647.697535 -39.464472 
L 648.880255 -39.825503 
L 650.062975 -40.215935 
L 651.245695 -40.633555 
L 652.428415 -41.07615 
L 653.611135 -41.541505 
L 654.793855 -42.027407 
L 655.976575 -42.531642 
L 657.159295 -43.051996 
L 658.342015 -43.586255 
L 659.524735 -44.132205 
L 660.707455 -44.687633 
L 661.890175 -45.250324 
L 663.072895 -45.818065 
L 664.255615 -46.388642 
L 665.438335 -46.95984 
L 666.621055 -47.529447 
L 667.803775 -48.095248 
L 668.986495 -48.65503 
L 670.169215 -49.206579 
L 671.351935 -49.74768 
L 672.534655 -50.27612 
L 673.717375 -50.789685 
L 674.900095 -51.286161 
L 676.082815 -51.763335 
L 677.265535 -52.218992 
L 678.448255 -52.650919 
L 679.630975 -53.056902 
L 680.813695 -53.434726 
L 681.996415 -53.782179 
L 683.179135 -54.097046 
L 684.361855 -54.377114 
L 685.544575 -54.620168 
L 686.727295 -54.823995 
L 687.910015 -54.986381 
L 689.092735 -55.105111 
L 690.275455 -55.177973 
L 691.458175 -55.202752 
L 692.640895 -55.19241 
L 693.823615 -55.161381 
L 695.006335 -55.109662 
L 696.189055 -55.037252 
L 697.371775 -54.944149 
L 698.554495 -54.830349 
L 699.737215 -54.695851 
L 700.919935 -54.540652 
L 702.102655 -54.36475 
L 703.285375 -54.168142 
L 704.468095 -53.950826 
L 705.650815 -53.7128 
L 706.833535 -53.454062 
L 708.016255 -53.174608 
L 709.198975 -52.874438 
L 710.381695 -52.553547 
L 711.564415 -52.211935 
L 712.747135 -51.849598 
L 713.929855 -51.466534 
L 715.112575 -51.062741 
L 716.295295 -50.638217 
L 717.478015 -50.192959 
L 718.660735 -49.726965 
L 719.843455 -49.240232 
L 721.026175 -48.732759 
L 722.208895 -48.204542 
L 723.391615 -47.65558 
L 724.574335 -47.08587 
L 725.757055 -46.495409 
L 726.939775 -45.884196 
L 728.122495 -45.252228 
L 729.305215 -44.599503 
L 730.487935 -43.926017 
L 731.670655 -43.23177 
L 732.853375 -42.516759 
L 734.036095 -41.78098 
L 735.218815 -41.024433 
L 736.401535 -40.247114 
L 737.584255 -39.449021 
L 738.766975 -38.630152 
L 738.766975 -104.769892 
L 738.766975 -104.769892 
L 737.584255 -105.798352 
L 736.401535 -106.815818 
L 735.218815 -107.821509 
L 734.036095 -108.814645 
L 732.853375 -109.794443 
L 731.670655 -110.760122 
L 730.487935 -111.7109 
L 729.305215 -112.645996 
L 728.122495 -113.564628 
L 726.939775 -114.466014 
L 725.757055 -115.349374 
L 724.574335 -116.213926 
L 723.391615 -117.058887 
L 722.208895 -117.883477 
L 721.026175 -118.686914 
L 719.843455 -119.468416 
L 718.660735 -120.227202 
L 717.478015 -120.96249 
L 716.295295 -121.673499 
L 715.112575 -122.359448 
L 713.929855 -123.019553 
L 712.747135 -123.653035 
L 711.564415 -124.259112 
L 710.381695 -124.837001 
L 709.198975 -125.385922 
L 708.016255 -125.905092 
L 706.833535 -126.393732 
L 705.650815 -126.851057 
L 704.468095 -127.276288 
L 703.285375 -127.668643 
L 702.102655 -128.02734 
L 700.919935 -128.351597 
L 699.737215 -128.640634 
L 698.554495 -128.893668 
L 697.371775 -129.109918 
L 696.189055 -129.288602 
L 695.006335 -129.428939 
L 693.823615 -129.530148 
L 692.640895 -129.591446 
L 691.458175 -129.612053 
L 690.275455 -129.599034 
L 689.092735 -129.560789 
L 687.910015 -129.498536 
L 686.727295 -129.413492 
L 685.544575 -129.306875 
L 684.361855 -129.179901 
L 683.179135 -129.033788 
L 681.996415 -128.869754 
L 680.813695 -128.689015 
L 679.630975 -128.49279 
L 678.448255 -128.282295 
L 677.265535 -128.058749 
L 676.082815 -127.823368 
L 674.900095 -127.57737 
L 673.717375 -127.321971 
L 672.534655 -127.058391 
L 671.351935 -126.787845 
L 670.169215 -126.511552 
L 668.986495 -126.230729 
L 667.803775 -125.946592 
L 666.621055 -125.66036 
L 665.438335 -125.37325 
L 664.255615 -125.08648 
L 663.072895 -124.801266 
L 661.890175 -124.518826 
L 660.707455 -124.240377 
L 659.524735 -123.967137 
L 658.342015 -123.700324 
L 657.159295 -123.441154 
L 655.976575 -123.190845 
L 654.793855 -122.950614 
L 653.611135 -122.721679 
L 652.428415 -122.505257 
L 651.245695 -122.302566 
L 650.062975 -122.114823 
L 648.880255 -121.943245 
L 647.697535 -121.789049 
L 646.514815 -121.653454 
L 645.332095 -121.537676 
L 644.149375 -121.442933 
L 642.966655 -121.359362 
L 641.783935 -121.276345 
L 640.601215 -121.193963 
L 639.418495 -121.112297 
L 638.235775 -121.031428 
L 637.053055 -120.951437 
L 635.870335 -120.872405 
L 634.687615 -120.794413 
L 633.504895 -120.717544 
L 632.322175 -120.641876 
L 631.139455 -120.567493 
L 629.956735 -120.494475 
L 628.774015 -120.422903 
L 627.591295 -120.352859 
L 626.408575 -120.284423 
L 625.225855 -120.217677 
L 624.043135 -120.152702 
L 622.860415 -120.089579 
L 621.677695 -120.028388 
L 620.494975 -119.969213 
L 619.312255 -119.912132 
L 618.129535 -119.857229 
L 616.946815 -119.804583 
L 615.764095 -119.754276 
L 614.581375 -119.70639 
L 613.398655 -119.661004 
L 612.215935 -119.618201 
L 611.033215 -119.578062 
L 609.850495 -119.540667 
L 608.667775 -119.506099 
L 607.485055 -119.474437 
L 606.302335 -119.445764 
L 605.119615 -119.42016 
L 603.936895 -119.397707 
L 602.754175 -119.378485 
L 601.571455 -119.362576 
L 600.388735 -119.350061 
L 599.206015 -119.341022 
L 598.023295 -119.335538 
L 596.840575 -119.333692 
L 595.657855 -119.350568 
L 594.475135 -119.400109 
L 593.292415 -119.480684 
L 592.109695 -119.590662 
L 590.926975 -119.728414 
L 589.744255 -119.892308 
L 588.561535 -120.080715 
L 587.378815 -120.292003 
L 586.196095 -120.524542 
L 585.013375 -120.776702 
L 583.830655 -121.046852 
L 582.647935 -121.333362 
L 581.465215 -121.6346 
L 580.282495 -121.948937 
L 579.099775 -122.274742 
L 577.917055 -122.610384 
L 576.734335 -122.954234 
L 575.551615 -123.30466 
L 574.368895 -123.660031 
L 573.186175 -124.018718 
L 572.003455 -124.37909 
L 570.820735 -124.739517 
L 569.638015 -125.098367 
L 568.455295 -125.45401 
L 567.272575 -125.804817 
L 566.089855 -126.149155 
L 564.907135 -126.485396 
L 563.724415 -126.811907 
L 562.541695 -127.127059 
L 561.358975 -127.429222 
L 560.176255 -127.716764 
L 558.993535 -127.988055 
L 557.810815 -128.241465 
L 556.628095 -128.475363 
L 555.445375 -128.688119 
L 554.262655 -128.878101 
L 553.079935 -129.043681 
L 551.897215 -129.183226 
L 550.714495 -129.295107 
L 549.531775 -129.377692 
L 548.349055 -129.443484 
L 547.166335 -129.506159 
L 545.983615 -129.565855 
L 544.800895 -129.62271 
L 543.618175 -129.67686 
L 542.435455 -129.728443 
L 541.252735 -129.777597 
L 540.070015 -129.824457 
L 538.887295 -129.869162 
L 537.704575 -129.911849 
L 536.521855 -129.952655 
L 535.339135 -129.991717 
L 534.156415 -130.029172 
L 532.973695 -130.065158 
L 531.790975 -130.099811 
L 530.608255 -130.13327 
L 529.425535 -130.16567 
L 528.242815 -130.19715 
L 527.060095 -130.227847 
L 525.877375 -130.257897 
L 524.694655 -130.287439 
L 523.511935 -130.316609 
L 522.329215 -130.345544 
L 521.146495 -130.374381 
L 519.963775 -130.403259 
L 518.781055 -130.432314 
L 517.598335 -130.461683 
L 516.415615 -130.491504 
L 515.232895 -130.521913 
L 514.050175 -130.553048 
L 512.867455 -130.585046 
L 511.684735 -130.618045 
L 510.502015 -130.652181 
L 509.319295 -130.687592 
L 508.136575 -130.724415 
L 506.953855 -130.762788 
L 505.771135 -130.802846 
L 504.588415 -130.844728 
L 503.405695 -130.888571 
L 502.222975 -130.934513 
L 501.040255 -130.983609 
L 499.857535 -131.036646 
L 498.674815 -131.093355 
L 497.492095 -131.153467 
L 496.309375 -131.216712 
L 495.126655 -131.28282 
L 493.943935 -131.351524 
L 492.761215 -131.422552 
L 491.578495 -131.495637 
L 490.395775 -131.570508 
L 489.213055 -131.646896 
L 488.030335 -131.724533 
L 486.847615 -131.803147 
L 485.664895 -131.882472 
L 484.482175 -131.962236 
L 483.299455 -132.042171 
L 482.116735 -132.122007 
L 480.934015 -132.201476 
L 479.751295 -132.280307 
L 478.568575 -132.358232 
L 477.385855 -132.43498 
L 476.203135 -132.510284 
L 475.020415 -132.583873 
L 473.837695 -132.655478 
L 472.654975 -132.72483 
L 471.472255 -132.791659 
L 470.289535 -132.855697 
L 469.106815 -132.916674 
L 467.924095 -132.97432 
L 466.741375 -133.028366 
L 465.558655 -133.078543 
L 464.375935 -133.124582 
L 463.193215 -133.166213 
L 462.010495 -133.203167 
L 460.827775 -133.235175 
L 459.645055 -133.261967 
L 458.462335 -133.283274 
L 457.279615 -133.298827 
L 456.096895 -133.308356 
L 454.914175 -133.311593 
L 453.731455 -133.304555 
L 452.548735 -133.283921 
L 451.366015 -133.250406 
L 450.183295 -133.204724 
L 449.000575 -133.147593 
L 447.817855 -133.079727 
L 446.635135 -133.001842 
L 445.452415 -132.914654 
L 444.269695 -132.818878 
L 443.086975 -132.71523 
L 441.904255 -132.604426 
L 440.721535 -132.487181 
L 439.538815 -132.364211 
L 438.356095 -132.236232 
L 437.173375 -132.103958 
L 435.990655 -131.968107 
L 434.807935 -131.829393 
L 433.625215 -131.688532 
L 432.442495 -131.54624 
L 431.259775 -131.403233 
L 430.077055 -131.260225 
L 428.894335 -131.117933 
L 427.711615 -130.977072 
L 426.528895 -130.838358 
L 425.346175 -130.702507 
L 424.163455 -130.570233 
L 422.980735 -130.442254 
L 421.798015 -130.319284 
L 420.615295 -130.202039 
L 419.432575 -130.091235 
L 418.249855 -129.987587 
L 417.067135 -129.891811 
L 415.884415 -129.804623 
L 414.701695 -129.726738 
L 413.518975 -129.658872 
L 412.336255 -129.601741 
L 411.153535 -129.556059 
L 409.970815 -129.522544 
L 408.788095 -129.50191 
L 407.605375 -129.494873 
L 406.422655 -129.514173 
L 405.239935 -129.570829 
L 404.057215 -129.662969 
L 402.874495 -129.788725 
L 401.691775 -129.946225 
L 400.509055 -130.1336 
L 399.326335 -130.34898 
L 398.143615 -130.590495 
L 396.960895 -130.856275 
L 395.778175 -131.14445 
L 394.595455 -131.45315 
L 393.412735 -131.780505 
L 392.230015 -132.124645 
L 391.047295 -132.483701 
L 389.864575 -132.855801 
L 388.681855 -133.239077 
L 387.499135 -133.631657 
L 386.316415 -134.031673 
L 385.133695 -134.437254 
L 383.950975 -134.846531 
L 382.768255 -135.257632 
L 381.585535 -135.668689 
L 380.402815 -136.077832 
L 379.220095 -136.483189 
L 378.037375 -136.882892 
L 376.854655 -137.27507 
L 375.671935 -137.657854 
L 374.489215 -138.029373 
L 373.306495 -138.387757 
L 372.123775 -138.731137 
L 370.941055 -139.057643 
L 369.758335 -139.365404 
L 368.575615 -139.65255 
L 367.392895 -139.917212 
L 366.210175 -140.15752 
L 365.027455 -140.371603 
L 363.844735 -140.557592 
L 362.662015 -140.713617 
L 361.479295 -140.837807 
L 360.296575 -140.928292 
L 359.113855 -140.998881 
L 357.931135 -141.064794 
L 356.748415 -141.126285 
L 355.565695 -141.183606 
L 354.382975 -141.237009 
L 353.200255 -141.286749 
L 352.017535 -141.333077 
L 350.834815 -141.376246 
L 349.652095 -141.416509 
L 348.469375 -141.454119 
L 347.286655 -141.489329 
L 346.103935 -141.52239 
L 344.921215 -141.553557 
L 343.738495 -141.583081 
L 342.555775 -141.611216 
L 341.373055 -141.638214 
L 340.190335 -141.664328 
L 339.007615 -141.689811 
L 337.824895 -141.714915 
L 336.642175 -141.739894 
L 335.459455 -141.764999 
L 334.276735 -141.790485 
L 333.094015 -141.816602 
L 331.911295 -141.843605 
L 330.728575 -141.871746 
L 329.545855 -141.901278 
L 328.363135 -141.932453 
L 327.180415 -141.965525 
L 325.997695 -142.000745 
L 324.814975 -142.038368 
L 323.632255 -142.078644 
L 322.449535 -142.121829 
L 321.266815 -142.168173 
L 320.084095 -142.217929 
L 318.901375 -142.271352 
L 317.718655 -142.328692 
L 316.535935 -142.390204 
L 315.353215 -142.456139 
L 314.170495 -142.526751 
L 312.987775 -142.602293 
L 311.805055 -142.71949 
L 310.622335 -142.912185 
L 309.439615 -143.176301 
L 308.256895 -143.507763 
L 307.074175 -143.902492 
L 305.891455 -144.356414 
L 304.708735 -144.865452 
L 303.526015 -145.42553 
L 302.343295 -146.032571 
L 301.160575 -146.682499 
L 299.977855 -147.371238 
L 298.795135 -148.094711 
L 297.612415 -148.848843 
L 296.429695 -149.629556 
L 295.246975 -150.432775 
L 294.064255 -151.254424 
L 292.881535 -152.090425 
L 291.698815 -152.936703 
L 290.516095 -153.789181 
L 289.333375 -154.643783 
L 288.150655 -155.496433 
L 286.967935 -156.343054 
L 285.785215 -157.179571 
L 284.602495 -158.001906 
L 283.419775 -158.805984 
L 282.237055 -159.587728 
L 281.054335 -160.343062 
L 279.871615 -161.06791 
L 278.688895 -161.758195 
L 277.506175 -162.409841 
L 276.323455 -163.018772 
L 275.140735 -163.580911 
L 273.958015 -164.092183 
L 272.775295 -164.54851 
L 271.592575 -164.945817 
L 270.409855 -165.280027 
L 269.227135 -165.547064 
L 268.044415 -165.742851 
L 266.861695 -165.863313 
L 265.678975 -165.904373 
L 264.496255 -165.904369 
L 263.313535 -165.904343 
L 262.130815 -165.904272 
L 260.948095 -165.904135 
L 259.765375 -165.903909 
L 258.582655 -165.903572 
L 257.399935 -165.903102 
L 256.217215 -165.902475 
L 255.034495 -165.901671 
L 253.851775 -165.900667 
L 252.669055 -165.899441 
L 251.486335 -165.897969 
L 250.303615 -165.896232 
L 249.120895 -165.894205 
L 247.938175 -165.891867 
L 246.755455 -165.889195 
L 245.572735 -165.886168 
L 244.390015 -165.882762 
L 243.207295 -165.878957 
L 242.024575 -165.874729 
L 240.841855 -165.870056 
L 239.659135 -165.864917 
L 238.476415 -165.859288 
L 237.293695 -165.853148 
L 236.110975 -165.846475 
L 234.928255 -165.839245 
L 233.745535 -165.831438 
L 232.562815 -165.82303 
L 231.380095 -165.814 
L 230.197375 -165.804325 
L 229.014655 -165.793983 
L 227.831935 -165.782952 
L 226.649215 -165.771209 
L 225.466495 -165.758733 
L 224.283775 -165.745501 
L 223.101055 -165.73149 
L 221.918335 -165.716679 
L 220.735615 -165.701046 
L 219.552895 -165.684568 
L 218.370175 -165.667223 
L 217.187455 -165.648988 
L 216.004735 -165.629842 
L 214.822015 -165.609762 
L 213.639295 -165.588726 
L 212.456575 -165.566712 
L 211.273855 -165.543697 
L 210.091135 -165.51966 
L 208.908415 -165.494577 
L 207.725695 -165.468428 
L 206.542975 -165.441189 
L 205.360255 -165.412838 
L 204.177535 -165.383354 
L 202.994815 -165.352713 
L 201.812095 -165.320895 
L 200.629375 -165.287875 
L 199.446655 -165.253633 
L 198.263935 -165.218146 
L 197.081215 -165.181391 
L 195.898495 -165.143347 
L 194.715775 -165.103991 
L 193.533055 -165.063301 
L 192.350335 -165.021256 
L 191.167615 -164.977831 
L 189.984895 -164.933006 
L 188.802175 -164.886758 
L 187.619455 -164.839065 
L 186.436735 -164.789905 
L 185.254015 -164.739255 
L 184.071295 -164.687093 
L 182.888575 -164.633397 
L 181.705855 -164.578144 
L 180.523135 -164.521314 
L 179.340415 -164.462882 
L 178.157695 -164.402828 
L 176.974975 -164.341128 
L 175.792255 -164.277761 
L 174.609535 -164.212704 
L 173.426815 -164.145935 
L 172.244095 -164.077432 
L 171.061375 -164.007172 
z
" style="stroke: #93cfff; stroke-opacity: 0.2"/>
    </defs>
    <g clip-path="url(#p3880939612)">
     <use xlink:href="#m3534c7019e" x="0" y="403.045012" style="fill: #93cfff; fill-opacity: 0.2; stroke: #93cfff; stroke-opacity: 0.2"/>
    </g>
   </g>
   <g id="text_27">
    <g id="patch_8">
     <path d="M 132.629652 99.274191 
L 171.646058 99.274191 
Q 173.896058 99.274191 173.896058 97.024191 
L 173.896058 88.793409 
Q 173.896058 86.543409 171.646058 86.543409 
L 132.629652 86.543409 
Q 130.379652 86.543409 130.379652 88.793409 
L 130.379652 97.024191 
Q 130.379652 99.274191 132.629652 99.274191 
z
" style="fill: #ffffff; opacity: 0.95"/>
    </g>
    <text style="font-size: 9px; font-family: 'Arial'; text-anchor: middle; fill: #64748b" x="152.137855" y="95.235441" transform="rotate(-0 152.137855 95.235441)">Observed</text>
   </g>
   <g id="text_28">
    <g id="patch_9">
     <path d="M 461.064278 99.274191 
L 496.072872 99.274191 
Q 498.322872 99.274191 498.322872 97.024191 
L 498.322872 88.793409 
Q 498.322872 86.543409 496.072872 86.543409 
L 461.064278 86.543409 
Q 458.814278 86.543409 458.814278 88.793409 
L 458.814278 97.024191 
Q 458.814278 99.274191 461.064278 99.274191 
z
" style="fill: #eaf2fb"/>
    </g>
    <text style="font-size: 9px; font-family: 'Arial'; text-anchor: middle; fill: #64748b" x="478.568575" y="95.235441" transform="rotate(-0 478.568575 95.235441)">Forecast</text>
   </g>
   <g id="text_29">
    <text style="font-size: 8.5px; font-family: 'Arial'; text-anchor: end; fill: #d55e00" x="769.517695" y="178.267425" transform="rotate(-0 769.517695 178.267425)">El Niño threshold</text>
   </g>
   <g id="line2d_38">
    <path d="M 171.061375 239.03784 
L 265.678975 318.49704 
L 312.987775 332.6256 
L 360.296575 331.48728 
L 407.605375 333.42912 
L 454.914175 310.99752 
L 502.222975 326.13048 
L 549.531775 329.54544 
L 596.840575 375.41304 
L 644.149375 371.4624 
L 691.458175 355.32504 
L 738.766975 375.68088 
" clip-path="url(#p3880939612)" style="fill: none; stroke: #63b3ed; stroke-opacity: 0.23; stroke-width: 0.9; stroke-linecap: square"/>
   </g>
   <g id="line2d_39">
    <path d="M 171.061375 239.03784 
L 265.678975 342.73656 
L 312.987775 349.76736 
L 360.296575 353.18232 
L 407.605375 362.22192 
L 454.914175 342.87048 
L 502.222975 336.84408 
L 549.531775 340.05816 
L 596.840575 401.9292 
L 644.149375 390.61296 
L 691.458175 387.66672 
L 735.456826 404.045012 
" clip-path="url(#p3880939612)" style="fill: none; stroke: #63b3ed; stroke-opacity: 0.23; stroke-width: 0.9; stroke-linecap: square"/>
   </g>
   <g id="line2d_40">
    <path d="M 171.061375 239.03784 
L 265.678975 230.5116 
L 312.987775 257.2956 
L 360.296575 261.04536 
L 407.605375 266.87088 
L 454.914175 265.73256 
L 502.222975 263.38896 
L 549.531775 264.6612 
L 596.840575 275.30784 
L 644.149375 285.01704 
L 691.458175 274.43736 
L 738.766975 301.4892 
" clip-path="url(#p3880939612)" style="fill: none; stroke: #63b3ed; stroke-opacity: 0.23; stroke-width: 0.9; stroke-linecap: square"/>
   </g>
   <g id="line2d_41">
    <path d="M 171.061375 239.03784 
L 265.678975 213.50376 
L 312.987775 236.8728 
L 360.296575 247.18464 
L 407.605375 223.21296 
L 454.914175 220.60152 
L 502.222975 225.35568 
L 549.531775 247.38552 
L 596.840575 243.63576 
L 644.149375 256.22424 
L 691.458175 242.83224 
L 738.766975 274.3704 
" clip-path="url(#p3880939612)" style="fill: none; stroke: #63b3ed; stroke-opacity: 0.23; stroke-width: 0.9; stroke-linecap: square"/>
   </g>
   <g id="line2d_42">
    <path d="M 171.061375 239.03784 
L 265.678975 261.38016 
L 312.987775 278.32104 
L 360.296575 267.13872 
L 407.605375 275.7096 
L 454.914175 268.74576 
L 502.222975 291.71304 
L 549.531775 301.824 
L 596.840575 301.42224 
L 644.149375 300.4848 
L 691.458175 286.15536 
L 738.766975 308.58696 
" clip-path="url(#p3880939612)" style="fill: none; stroke: #63b3ed; stroke-opacity: 0.23; stroke-width: 0.9; stroke-linecap: square"/>
   </g>
   <g id="line2d_43">
    <path d="M 171.061375 239.03784 
L 265.678975 266.06736 
L 312.987775 284.28048 
L 360.296575 276.31224 
L 407.605375 330.21504 
L 454.914175 313.40808 
L 502.222975 337.44672 
L 549.531775 337.9824 
L 596.840575 395.03232 
L 644.149375 381.64032 
L 691.458175 356.3964 
L 738.766975 371.26152 
" clip-path="url(#p3880939612)" style="fill: none; stroke: #63b3ed; stroke-opacity: 0.23; stroke-width: 0.9; stroke-linecap: square"/>
   </g>
   <g id="line2d_44">
    <path d="M 171.061375 239.03784 
L 265.678975 251.20224 
L 312.987775 269.88408 
L 360.296575 265.3308 
L 407.605375 278.85672 
L 454.914175 272.6964 
L 502.222975 279.99504 
L 549.531775 286.82496 
L 596.840575 284.4144 
L 644.149375 280.46376 
L 691.458175 273.09816 
L 738.766975 297.20376 
" clip-path="url(#p3880939612)" style="fill: none; stroke: #63b3ed; stroke-opacity: 0.23; stroke-width: 0.9; stroke-linecap: square"/>
   </g>
   <g id="line2d_45">
    <path d="M 171.061375 239.03784 
L 265.678975 232.45344 
L 312.987775 253.01016 
L 360.296575 252.80928 
L 407.605375 272.83032 
L 454.914175 274.0356 
L 502.222975 269.48232 
L 549.531775 269.28144 
L 596.840575 283.47696 
L 644.149375 277.31664 
L 691.458175 257.02776 
L 738.766975 291.24432 
" clip-path="url(#p3880939612)" style="fill: none; stroke: #63b3ed; stroke-opacity: 0.23; stroke-width: 0.9; stroke-linecap: square"/>
   </g>
   <g id="line2d_46">
    <path d="M 171.061375 239.03784 
L 265.678975 291.31128 
L 312.987775 304.43544 
L 360.296575 314.8812 
L 407.605375 322.84944 
L 454.914175 323.85384 
L 502.222975 323.38512 
L 549.531775 321.30936 
L 596.840575 358.74 
L 644.149375 343.47312 
L 691.458175 325.39392 
L 738.766975 343.87488 
" clip-path="url(#p3880939612)" style="fill: none; stroke: #63b3ed; stroke-opacity: 0.23; stroke-width: 0.9; stroke-linecap: square"/>
   </g>
   <g id="line2d_47">
    <path d="M 171.061375 239.03784 
L 265.678975 282.7404 
L 312.987775 290.57472 
L 360.296575 299.07864 
L 407.605375 308.31912 
L 454.914175 303.1632 
L 502.222975 293.454 
L 549.531775 299.68128 
L 596.840575 314.27856 
L 644.149375 305.03808 
L 691.458175 284.14656 
L 738.766975 308.98872 
" clip-path="url(#p3880939612)" style="fill: none; stroke: #63b3ed; stroke-opacity: 0.23; stroke-width: 0.9; stroke-linecap: square"/>
   </g>
   <g id="line2d_48">
    <path d="M 76.443775 260.91144 
L 123.752575 255.24216 
L 171.061375 239.03784 
" clip-path="url(#p3880939612)" style="fill: none; stroke: #20262e; stroke-width: 2; stroke-linecap: square"/>
    <defs>
     <path id="m549eefcee6" d="M 0 2.9 
C 0.769089 2.9 1.506782 2.594438 2.05061 2.05061 
C 2.594438 1.506782 2.9 0.769089 2.9 0 
C 2.9 -0.769089 2.594438 -1.506782 2.05061 -2.05061 
C 1.506782 -2.594438 0.769089 -2.9 0 -2.9 
C -0.769089 -2.9 -1.506782 -2.594438 -2.05061 -2.05061 
C -2.594438 -1.506782 -2.9 -0.769089 -2.9 0 
C -2.9 0.769089 -2.594438 1.506782 -2.05061 2.05061 
C -1.506782 2.594438 -0.769089 2.9 0 2.9 
z
" style="stroke: #20262e; stroke-width: 1.4"/>
    </defs>
    <g clip-path="url(#p3880939612)">
     <use xlink:href="#m549eefcee6" x="76.443775" y="260.91144" style="fill: #ffffff; stroke: #20262e; stroke-width: 1.4"/>
     <use xlink:href="#m549eefcee6" x="123.752575" y="255.24216" style="fill: #ffffff; stroke: #20262e; stroke-width: 1.4"/>
     <use xlink:href="#m549eefcee6" x="171.061375" y="239.03784" style="fill: #ffffff; stroke: #20262e; stroke-width: 1.4"/>
    </g>
   </g>
   <g id="line2d_49">
    <path d="M 171.061375 239.03784 
L 265.678975 269.0136 
L 312.987775 285.68664 
L 360.296575 286.82496 
L 407.605375 297.4716 
L 454.914175 289.63728 
L 502.222975 294.72624 
L 549.531775 299.88216 
L 596.840575 323.38512 
L 644.149375 319.16664 
L 691.458175 304.23456 
L 738.766975 327.80448 
" clip-path="url(#p3880939612)" style="fill: none; stroke: #005b96; stroke-width: 2.6; stroke-linecap: square"/>
    <defs>
     <path id="m2605333618" d="M 0 3 
C 0.795609 3 1.55874 2.683901 2.12132 2.12132 
C 2.683901 1.55874 3 0.795609 3 0 
C 3 -0.795609 2.683901 -1.55874 2.12132 -2.12132 
C 1.55874 -2.683901 0.795609 -3 0 -3 
C -0.795609 -3 -1.55874 -2.683901 -2.12132 -2.12132 
C -2.683901 -1.55874 -3 -0.795609 -3 0 
C -3 0.795609 -2.683901 1.55874 -2.12132 2.12132 
C -1.55874 2.683901 -0.795609 3 0 3 
z
" style="stroke: #ffffff; stroke-width: 0.8"/>
    </defs>
    <g clip-path="url(#p3880939612)">
     <use xlink:href="#m2605333618" x="171.061375" y="239.03784" style="fill: #005b96; stroke: #ffffff; stroke-width: 0.8"/>
     <use xlink:href="#m2605333618" x="265.678975" y="269.0136" style="fill: #005b96; stroke: #ffffff; stroke-width: 0.8"/>
     <use xlink:href="#m2605333618" x="312.987775" y="285.68664" style="fill: #005b96; stroke: #ffffff; stroke-width: 0.8"/>
     <use xlink:href="#m2605333618" x="360.296575" y="286.82496" style="fill: #005b96; stroke: #ffffff; stroke-width: 0.8"/>
     <use xlink:href="#m2605333618" x="407.605375" y="297.4716" style="fill: #005b96; stroke: #ffffff; stroke-width: 0.8"/>
     <use xlink:href="#m2605333618" x="454.914175" y="289.63728" style="fill: #005b96; stroke: #ffffff; stroke-width: 0.8"/>
     <use xlink:href="#m2605333618" x="502.222975" y="294.72624" style="fill: #005b96; stroke: #ffffff; stroke-width: 0.8"/>
     <use xlink:href="#m2605333618" x="549.531775" y="299.88216" style="fill: #005b96; stroke: #ffffff; stroke-width: 0.8"/>
     <use xlink:href="#m2605333618" x="596.840575" y="323.38512" style="fill: #005b96; stroke: #ffffff; stroke-width: 0.8"/>
     <use xlink:href="#m2605333618" x="644.149375" y="319.16664" style="fill: #005b96; stroke: #ffffff; stroke-width: 0.8"/>
     <use xlink:href="#m2605333618" x="691.458175" y="304.23456" style="fill: #005b96; stroke: #ffffff; stroke-width: 0.8"/>
     <use xlink:href="#m2605333618" x="738.766975" y="327.80448" style="fill: #005b96; stroke: #ffffff; stroke-width: 0.8"/>
    </g>
   </g>
   <g id="PathCollection_1">
    <defs>
     <path id="mc31b1a0913" d="M 0 4.41588 
C 1.171105 4.41588 2.294403 3.950595 3.122499 3.122499 
C 3.950595 2.294403 4.41588 1.171105 4.41588 0 
C 4.41588 -1.171105 3.950595 -2.294403 3.122499 -3.122499 
C 2.294403 -3.950595 1.171105 -4.41588 0 -4.41588 
C -1.171105 -4.41588 -2.294403 -3.950595 -3.122499 -3.122499 
C -3.950595 -2.294403 -4.41588 -1.171105 -4.41588 0 
C -4.41588 1.171105 -3.950595 2.294403 -3.122499 3.122499 
C -2.294403 3.950595 -1.171105 4.41588 0 4.41588 
z
" style="stroke: #ffffff"/>
    </defs>
    <g clip-path="url(#p3880939612)">
     <use xlink:href="#mc31b1a0913" x="738.766975" y="327.80448" style="fill: #005b96; stroke: #ffffff"/>
    </g>
   </g>
  </g>
  <g id="text_30">
   <text style="font-weight: 700; font-size: 15px; font-family: 'Arial'; text-anchor: start; fill: #1f2937" x="52.789375" y="18.119531" transform="rotate(-0 52.789375 18.119531)">Nino 3.4 SST anomaly forecast</text>
  </g>
  <g id="text_31">
   <text style="font-size: 10px; font-family: 'Arial'; text-anchor: start; fill: #64748b" x="52.789375" y="30.8592" transform="rotate(-0 52.789375 30.8592)">CAS-Canglong SST16 ensemble forecast initialized March 2026; valid through February 2027; anomalies relative to 1991–2020 climatology</text>
  </g>
  <g id="legend_1">
   <g id="line2d_50">
    <path d="M 60.889375 60.216919 
L 72.589375 60.216919 
L 84.289375 60.216919 
" style="fill: none; stroke: #20262e; stroke-width: 2; stroke-linecap: square"/>
    <defs>
     <path id="m4b55bd2be7" d="M 0 2.9 
C 0.769089 2.9 1.506782 2.594438 2.05061 2.05061 
C 2.594438 1.506782 2.9 0.769089 2.9 0 
C 2.9 -0.769089 2.594438 -1.506782 2.05061 -2.05061 
C 1.506782 -2.594438 0.769089 -2.9 0 -2.9 
C -0.769089 -2.9 -1.506782 -2.594438 -2.05061 -2.05061 
C -2.594438 -1.506782 -2.9 -0.769089 -2.9 0 
C -2.9 0.769089 -2.594438 1.506782 -2.05061 2.05061 
C -1.506782 2.594438 -0.769089 2.9 0 2.9 
z
" style="stroke: #20262e; stroke-width: 1.3"/>
    </defs>
    <g>
     <use xlink:href="#m4b55bd2be7" x="72.589375" y="60.216919" style="fill: #ffffff; stroke: #20262e; stroke-width: 1.3"/>
    </g>
   </g>
   <g id="text_32">
    <text style="font-size: 9px; font-family: 'Arial'; text-anchor: start" x="91.489375" y="63.366919" transform="rotate(-0 91.489375 63.366919)">Observed</text>
   </g>
   <g id="patch_10">
    <path d="M 60.889375 76.207387 
L 84.289375 76.207387 
L 84.289375 69.907387 
L 60.889375 69.907387 
z
" style="fill: #d9ecff"/>
   </g>
   <g id="text_33">
    <text style="font-size: 9px; font-family: 'Arial'; text-anchor: start" x="91.489375" y="76.207387" transform="rotate(-0 91.489375 76.207387)">Ensemble spread (10–90%)</text>
   </g>
   <g id="patch_11">
    <path d="M 213.845781 63.366919 
L 237.245781 63.366919 
L 237.245781 57.066919 
L 213.845781 57.066919 
z
" style="fill: #93cfff"/>
   </g>
   <g id="text_34">
    <text style="font-size: 9px; font-family: 'Arial'; text-anchor: start" x="244.445781" y="63.366919" transform="rotate(-0 244.445781 63.366919)">Ensemble spread (25–75%)</text>
   </g>
   <g id="line2d_51">
    <path d="M 213.845781 73.053169 
L 225.545781 73.053169 
L 237.245781 73.053169 
" style="fill: none; stroke: #63b3ed; stroke-opacity: 0.35; stroke-width: 1.1; stroke-linecap: square"/>
   </g>
   <g id="text_35">
    <text style="font-size: 9px; font-family: 'Arial'; text-anchor: start" x="244.445781" y="76.203169" transform="rotate(-0 244.445781 76.203169)">Ensemble members</text>
   </g>
   <g id="line2d_52">
    <path d="M 366.802188 60.216919 
L 378.502188 60.216919 
L 390.202188 60.216919 
" style="fill: none; stroke: #005b96; stroke-width: 2.6; stroke-linecap: square"/>
    <g>
     <use xlink:href="#m2605333618" x="378.502188" y="60.216919" style="fill: #005b96; stroke: #ffffff; stroke-width: 0.8"/>
    </g>
   </g>
   <g id="text_36">
    <text style="font-size: 9px; font-family: 'Arial'; text-anchor: start" x="397.402188" y="63.366919" transform="rotate(-0 397.402188 63.366919)">CAS-Canglong mean</text>
   </g>
  </g>
 </g>
 <defs>
  <clipPath id="p3880939612">
   <rect x="52.789375" y="82.1952" width="709.632" height="267.84"/>
  </clipPath>
 </defs>
</svg>
